<svg width="171" height="9" viewBox="0 0 171 9" fill="none" xmlns="http://www.w3.org/2000/svg">
<path d="M156.615 1.59085C152.894 1.35899 149.173 1.18685 145.452 0.988147C144.225 0.919724 142.991 0.917587 141.763 0.882321C139.098 0.804797 136.433 0.7339 133.768 0.656376C132.286 0.614042 130.798 0.56507 129.316 0.529367C128.884 0.521992 128.457 0.514616 128.025 0.513872C127.058 0.512211 126.091 0.523832 125.124 0.528803C120.729 0.521251 116.327 0.526924 111.932 0.519373C110.883 0.51757 109.84 0.542342 108.79 0.553802C106.195 0.5825 103.606 0.617823 101.017 0.646532C98.091 0.681293 95.1714 0.689548 92.2454 0.764098C87.5128 0.875332 82.7866 0.993201 78.054 1.10443C75.3124 1.17267 72.5772 1.20778 69.8356 1.3158C65.1156 1.50663 60.402 1.69081 55.682 1.87501C53.1057 1.97669 50.5231 2.05847 47.9468 2.20657C43.0676 2.48333 38.1885 2.75349 33.3093 3.03026C30.7012 3.1783 28.0931 3.28655 25.4912 3.51418C20.6308 3.93687 15.7769 4.35954 10.9166 4.78223C9.86688 4.87326 8.81721 4.96433 7.76753 5.05537C5.66818 5.23744 3.58137 5.52561 1.48827 5.76738C1.35466 5.78704 1.22741 5.80673 1.09382 5.81976C0.845623 5.89228 0.622769 6.02451 0.437978 6.2165C0.163978 6.50118 0.00427749 6.8988 0.00358251 7.30331C0.00288753 7.70783 0.161221 8.106 0.43423 8.39825C0.681853 8.6573 1.11397 8.89677 1.48297 8.85098C4.00869 8.55691 6.52806 8.24955 9.06001 8.02844C11.4075 7.8269 13.7486 7.61871 16.096 7.41717C18.6534 7.1961 21.2108 6.97501 23.7682 6.75394C24.7988 6.66287 25.8294 6.54529 26.8663 6.48739C30.8549 6.26215 34.8435 6.04351 38.832 5.8249C41.3193 5.68328 43.8066 5.54832 46.2939 5.4067C47.318 5.34878 48.3486 5.27759 49.3791 5.23294C53.3294 5.07394 57.286 4.92824 61.2363 4.78251C63.6344 4.69379 66.0262 4.59839 68.4244 4.50967C69.2322 4.4779 70.0338 4.43952 70.8416 4.42102C75.1098 4.32225 79.378 4.23009 83.6462 4.13796C86.0316 4.08237 88.4106 4.0334 90.796 3.97782C91.642 3.95938 92.4944 3.92771 93.3403 3.92253C97.742 3.88367 102.144 3.8448 106.545 3.80594C109.293 3.77751 112.035 3.75568 114.783 3.76703C119.458 3.78833 124.133 3.80298 128.802 3.82427C129.724 3.82585 130.646 3.86725 131.568 3.902C134.151 3.98601 136.727 4.07 139.309 4.15402C141.242 4.21702 143.176 4.28004 145.116 4.34305C146.49 4.3852 147.857 4.49363 149.231 4.57557C153.27 4.80797 157.308 5.05366 161.34 5.31921C162.364 5.38729 163.388 5.4686 164.412 5.54993C165.513 5.6314 166.613 5.7195 167.707 5.84738C167.878 5.8742 168.044 5.90765 168.215 5.94774C168.648 6.04132 169.061 6.01551 169.45 5.78407C169.806 5.56585 170.074 5.20158 170.189 4.784C170.42 3.90905 169.912 2.97317 169.073 2.72636C168.336 2.51289 167.573 2.42537 166.816 2.34449C166.294 2.29054 165.779 2.22998 165.258 2.17603C164.259 2.06821 163.254 2.0134 162.256 1.93211C160.38 1.783 158.497 1.69358 156.615 1.57761L156.615 1.59085Z" fill="#8B5CF6"/>
</svg>
