<svg width="448" height="9" viewBox="0 0 448 9" fill="none" xmlns="http://www.w3.org/2000/svg">
<path d="M412.061 1.79718C402.271 1.54431 392.48 1.35398 382.69 1.13583C379.46 1.06085 376.213 1.05528 372.983 1.01503C365.971 0.926637 358.958 0.845185 351.946 0.756793C348.046 0.708452 344.13 0.653142 340.231 0.611746C339.093 0.602854 337.971 0.593976 336.833 0.592029C334.289 0.587675 331.745 0.597232 329.202 0.599823C317.637 0.580032 306.055 0.574072 294.49 0.554281C291.729 0.549556 288.984 0.572678 286.223 0.581841C279.394 0.604879 272.582 0.634871 265.771 0.657937C258.072 0.68643 250.39 0.687182 242.691 0.757343C230.239 0.861038 217.804 0.971697 205.352 1.07539C198.138 1.13944 190.942 1.16881 183.728 1.27452C171.309 1.46161 158.908 1.64174 146.489 1.82189C139.71 1.9214 132.915 2.00007 126.137 2.1482C113.3 2.42485 100.462 2.69458 87.6252 2.97123C80.7631 3.11921 73.901 3.22553 67.0554 3.45688C54.2681 3.8864 41.4976 4.31591 28.7103 4.74543C25.9486 4.83793 23.187 4.93046 20.4253 5.02296C14.902 5.20796 9.41198 5.50411 3.9053 5.75164C3.5538 5.77187 3.21904 5.79214 2.86755 5.80543C2.21471 5.88071 1.62869 6.01858 1.14299 6.21914C0.422818 6.51653 0.00369465 6.9325 0.00296398 7.35613C0.00223331 7.77975 0.419919 8.19716 1.13905 8.50396C1.7913 8.77592 2.92894 9.02787 3.89973 8.98092C10.5446 8.67978 17.1727 8.36472 23.8341 8.14C30.0102 7.93528 36.1695 7.72359 42.3456 7.51887C49.074 7.29427 55.8024 7.06965 62.5308 6.84505C65.2422 6.75246 67.9537 6.63212 70.6818 6.57428C81.1759 6.34918 91.67 6.131 102.164 5.91284C108.708 5.77125 115.252 5.63664 121.796 5.49506C124.491 5.43717 127.203 5.3654 129.914 5.32143C140.307 5.1656 150.718 5.02371 161.111 4.88177C167.421 4.79535 173.714 4.70191 180.024 4.61548C182.149 4.58439 184.258 4.54637 186.384 4.52917C197.614 4.43727 208.844 4.35231 220.074 4.26736C226.351 4.21559 232.61 4.17074 238.886 4.11898C241.112 4.10196 243.355 4.07109 245.581 4.06796C257.162 4.03917 268.744 4.01036 280.326 3.98157C287.556 3.95922 294.769 3.94377 301.999 3.96309C314.3 3.99803 326.601 4.02601 338.886 4.06093C341.313 4.06508 343.739 4.11093 346.166 4.14981C352.961 4.24477 359.739 4.3397 366.534 4.43466C371.621 4.50587 376.709 4.57709 381.814 4.64833C385.429 4.69619 389.027 4.81343 392.642 4.90296C403.269 5.15726 413.896 5.42548 424.506 5.71448C427.201 5.78853 429.895 5.87646 432.589 5.9644C435.485 6.05269 438.38 6.14793 441.258 6.28481C441.71 6.31336 442.145 6.34884 442.597 6.39128C443.735 6.49046 444.823 6.46454 445.844 6.22322C446.782 5.99565 447.485 5.61489 447.787 5.1779C448.391 4.26223 447.054 3.28076 444.845 3.02003C442.904 2.79448 440.896 2.70076 438.905 2.61401C437.532 2.55611 436.177 2.49129 434.805 2.43338C432.177 2.31777 429.533 2.25765 426.906 2.16982C421.969 2.00859 417.015 1.90986 412.061 1.78332L412.061 1.79718Z" fill="#8B5CF6"/>
</svg>
