<svg width="508" height="11" viewBox="0 0 508 11" fill="none" xmlns="http://www.w3.org/2000/svg">
<path d="M466.989 2.02119C455.903 1.73456 444.817 1.51881 433.73 1.27154C430.073 1.18656 426.396 1.18022 422.738 1.13459C414.798 1.03438 406.857 0.942037 398.917 0.841828C394.501 0.787023 390.066 0.724322 385.651 0.677388C384.362 0.667305 383.092 0.657238 381.804 0.655025C378.923 0.650078 376.042 0.660894 373.162 0.663817C360.066 0.641326 346.951 0.634511 333.856 0.61202C330.729 0.60665 327.621 0.632838 324.493 0.643208C316.761 0.669279 309.048 0.703232 301.334 0.729335C292.616 0.761584 283.918 0.762395 275.2 0.841864C261.099 0.95931 247.018 1.08465 232.918 1.2021C224.749 1.27464 216.6 1.30789 208.432 1.42765C194.369 1.6396 180.326 1.84367 166.263 2.04776C158.587 2.1605 150.893 2.24961 143.217 2.41744C128.681 2.73089 114.144 3.03649 99.6075 3.34995C91.837 3.51761 84.0666 3.63806 76.3148 3.9002C61.8349 4.38689 47.3739 4.87358 32.8939 5.36027C29.7667 5.46508 26.6395 5.56993 23.5122 5.67474C17.2578 5.88436 11.0411 6.21994 4.80546 6.50043C4.40744 6.52336 4.02836 6.54633 3.63035 6.56138C2.89109 6.64669 2.2275 6.80293 1.67751 7.03022C0.862007 7.36724 0.387407 7.83864 0.386582 8.31872C0.385756 8.79879 0.858734 9.27183 1.67306 9.61952C2.41165 9.92772 3.69988 10.2133 4.79917 10.1601C12.3236 9.81882 19.8291 9.4618 27.3723 9.20717C34.3659 8.97521 41.3406 8.73534 48.3342 8.50338C55.9532 8.24888 63.5722 7.99436 71.1913 7.73986C74.2616 7.63496 77.332 7.49859 80.4213 7.43306C92.3045 7.17802 104.188 6.93082 116.071 6.68364C123.481 6.52322 130.892 6.37071 138.302 6.21029C141.353 6.1447 144.424 6.06338 147.494 6.01357C159.263 5.83703 171.052 5.67629 182.821 5.51549C189.966 5.41758 197.092 5.31172 204.237 5.21381C206.644 5.17859 209.032 5.13551 211.439 5.11603C224.155 5.01195 236.872 4.91572 249.589 4.81951C256.696 4.76088 263.784 4.71009 270.891 4.65146C273.412 4.63218 275.951 4.59722 278.472 4.59368C291.587 4.56111 304.701 4.52852 317.816 4.49596C326.003 4.47067 334.171 4.4532 342.358 4.47513C356.288 4.51479 370.217 4.54658 384.128 4.58621C386.876 4.59093 389.624 4.6429 392.372 4.68697C400.066 4.79463 407.741 4.90224 415.435 5.0099C421.197 5.09062 426.958 5.17136 432.738 5.25212C436.831 5.30637 440.906 5.43927 444.999 5.54074C457.033 5.82899 469.067 6.133 481.082 6.46057C484.133 6.54451 487.184 6.64417 490.235 6.74385C493.513 6.84392 496.792 6.95187 500.051 7.107C500.563 7.13936 501.056 7.17957 501.567 7.22767C502.856 7.34007 504.088 7.3107 505.244 7.03723C506.306 6.77934 507.103 6.34785 507.445 5.85261C508.129 4.81493 506.614 3.70266 504.113 3.40717C501.915 3.15155 499.641 3.04533 497.386 2.94701C495.832 2.88138 494.297 2.80791 492.743 2.74228C489.768 2.61125 486.774 2.54311 483.799 2.44356C478.208 2.26082 472.599 2.1489 466.989 2.00548L466.989 2.02119Z" fill="#8B5CF6"/>
</svg>
