<svg width="42" height="42" viewBox="0 0 42 42" fill="none" xmlns="http://www.w3.org/2000/svg">
<g opacity="0.2">
<path d="M13.1232 19.8965C12.1134 19.6057 11.1036 19.4582 10.1213 19.4582C8.60444 19.4582 7.33874 19.8049 6.35731 20.2294C7.30347 16.7655 9.5764 10.7888 14.1042 10.1157C14.5235 10.0533 14.8671 9.75013 14.9815 9.34198L15.9711 5.80246C16.0546 5.50313 16.0051 5.18272 15.8344 4.92295C15.6636 4.66319 15.3892 4.48987 15.0817 4.44772C14.7476 4.40213 14.407 4.37891 14.0694 4.37891C8.63454 4.37891 3.2522 10.0516 0.980989 18.174C-0.352233 22.9393 -0.743168 30.1035 2.54086 34.6128C4.37855 37.1361 7.05962 38.4835 10.5097 38.6181C10.5238 38.6185 10.5376 38.619 10.5518 38.619C14.8086 38.619 18.5834 35.7521 19.7317 31.6479C20.4176 29.1943 20.1076 26.6211 18.8578 24.4007C17.6213 22.2051 15.5849 20.6048 13.1232 19.8965Z" fill="#183B56"/>
<path d="M39.7695 24.4011C38.533 22.2051 36.4966 20.6048 34.0349 19.8965C33.0251 19.6057 32.0153 19.4582 31.0334 19.4582C29.5166 19.4582 28.2505 19.8049 27.269 20.2294C28.2152 16.7655 30.4881 10.7888 35.0163 10.1157C35.4357 10.0533 35.7789 9.75013 35.8937 9.34198L36.8833 5.80246C36.9667 5.50313 36.9173 5.18272 36.7465 4.92295C36.5762 4.66319 36.3018 4.48987 35.9939 4.44772C35.6602 4.40213 35.3195 4.37891 34.9815 4.37891C29.5467 4.37891 24.1643 10.0516 21.8927 18.174C20.5599 22.9393 20.169 30.1035 23.4534 34.6137C25.2907 37.1365 27.9722 38.4844 31.4218 38.6185C31.436 38.619 31.4498 38.6194 31.4644 38.6194C35.7208 38.6194 39.496 35.7525 40.6442 31.6483C41.3294 29.1947 41.0188 26.6211 39.7695 24.4011Z" fill="#183B56"/>
</g>
</svg>
